<?xml version="1.0" encoding="UTF-8" standalone="no"?>
<!-- Uploaded to: SVG Repo, www.svgrepo.com, Transformed by: SVG Repo Mixer Tools -->

<svg
   width="800px"
   height="800px"
   viewBox="0 0 24 24"
   fill="none"
   version="1.1"
   id="svg2"
   sodipodi:docname="bell-svgrepo-com.svg"
   inkscape:version="1.3 (0e150ed6c4, 2023-07-21)"
   xmlns:inkscape="http://www.inkscape.org/namespaces/inkscape"
   xmlns:sodipodi="http://sodipodi.sourceforge.net/DTD/sodipodi-0.dtd"
   xmlns="http://www.w3.org/2000/svg"
   xmlns:svg="http://www.w3.org/2000/svg">
  <defs
     id="defs2" />
  <sodipodi:namedview
     id="namedview2"
     pagecolor="#ffffff"
     bordercolor="#999999"
     borderopacity="1"
     inkscape:showpageshadow="2"
     inkscape:pageopacity="0"
     inkscape:pagecheckerboard="0"
     inkscape:deskcolor="#d1d1d1"
     inkscape:zoom="0.38935067"
     inkscape:cx="304.35288"
     inkscape:cy="75.767174"
     inkscape:window-width="1920"
     inkscape:window-height="1164"
     inkscape:window-x="-11"
     inkscape:window-y="-11"
     inkscape:window-maximized="1"
     inkscape:current-layer="SVGRepo_iconCarrier" />
  <g
     id="SVGRepo_bgCarrier"
     stroke-width="0" />
  <g
     id="SVGRepo_tracerCarrier"
     stroke-linecap="round"
     stroke-linejoin="round" />
  <g
     id="SVGRepo_iconCarrier">
    <g
       id="g2"
       transform="matrix(1.0633829,0,0,1.0489812,-0.76054676,-0.15556079)"
       style="stroke-width:0.946828">
      <path
         d="m 10.1,5.37363 c 0.2629,-0.79777 1.0142,-2.1976936 1.9,-2.1976936 0.8858,0 1.6371,1.3999236 1.9,2.1976936 C 15.7191,6.12152 17,7.91118 17,10 v 4 l 2.1464,2.1464 C 19.4614,16.4614 19.2383,17 18.7928,17 H 5.20706 C 4.76161,17 4.53852,16.4614 4.8535,16.1464 L 7,14 V 10 C 7,7.91118 8.28088,6.12152 10.1,5.37363 Z"
         fill="#707070"
         id="path1"
         sodipodi:nodetypes="cscscsssccsc"
         style="stroke-width:0.946828" />
      <path
         d="m 10,18 c 0,1.1046 0.8954,2 2,2 1.1046,0 2,-0.8954 2,-2 z"
         fill="#707070"
         id="path2"
         style="stroke-width:0.946828" />
    </g>
  </g>
</svg>
