<?xml version="1.0" encoding="UTF-8" standalone="no"?>
<!-- Created with Inkscape (http://www.inkscape.org/) -->

<svg
   width="48"
   height="48"
   viewBox="0 0 48 48"
   version="1.1"
   id="svg1"
   xml:space="preserve"
   inkscape:version="1.3 (0e150ed6c4, 2023-07-21)"
   sodipodi:docname="c3-logo.svg"
   xmlns:inkscape="http://www.inkscape.org/namespaces/inkscape"
   xmlns:sodipodi="http://sodipodi.sourceforge.net/DTD/sodipodi-0.dtd"
   xmlns="http://www.w3.org/2000/svg"
   xmlns:svg="http://www.w3.org/2000/svg"><sodipodi:namedview
     id="namedview1"
     pagecolor="#ffffff"
     bordercolor="#999999"
     borderopacity="1"
     inkscape:showpageshadow="2"
     inkscape:pageopacity="0"
     inkscape:pagecheckerboard="0"
     inkscape:deskcolor="#d1d1d1"
     inkscape:document-units="px"
     inkscape:zoom="22.627417"
     inkscape:cx="22.45064"
     inkscape:cy="23.224038"
     inkscape:window-width="1920"
     inkscape:window-height="1164"
     inkscape:window-x="-11"
     inkscape:window-y="-11"
     inkscape:window-maximized="1"
     inkscape:current-layer="layer1"
     showgrid="false" /><defs
     id="defs1" /><g
     inkscape:label="Layer 1"
     inkscape:groupmode="layer"
     id="layer1"><path
       id="path1"
       style="font-size:32.5279px;line-height:79.57%;font-family:'MBF Space';-inkscape-font-specification:'MBF Space';text-align:end;letter-spacing:0px;direction:rtl;text-anchor:end;fill:#1b1b1b;fill-opacity:1;fill-rule:evenodd;stroke:#fbdbe6;stroke-width:0;stroke-linecap:round;stroke-miterlimit:0;paint-order:stroke fill markers"
       d="M 14.171875 11.648438 C 12.756266 11.648438 11.400018 11.976274 10.101562 12.630859 C 8.8031088 13.285447 7.6852773 14.163164 6.7480469 15.265625 C 5.8108164 16.368086 5.06234 17.68357 4.5058594 19.210938 C 3.9493788 20.738304 3.671875 22.334826 3.671875 24 C 3.671875 25.665174 3.9493788 27.261695 4.5058594 28.789062 C 5.06234 30.316431 5.8108164 31.631914 6.7480469 32.734375 C 7.6852773 33.836836 8.8031088 34.714553 10.101562 35.369141 C 11.400018 36.023725 12.756266 36.351562 14.171875 36.351562 L 18.503906 36.351562 L 19.488281 36.351562 L 20.574219 36.351562 L 20.574219 30.792969 L 18.503906 30.792969 L 18.503906 34.335938 L 14.171875 34.335938 C 12.980811 34.335938 11.835623 34.065136 10.742188 33.525391 C 9.6585156 32.97416 8.7282904 32.239031 7.9472656 31.320312 C 7.1662402 30.401595 6.542834 29.305972 6.0742188 28.03125 C 5.6153664 26.745045 5.3847656 25.401044 5.3847656 24 C 5.3847656 22.598955 5.6153664 21.261048 6.0742188 19.986328 C 6.542834 18.700123 7.1662402 17.598405 7.9472656 16.679688 C 8.7282904 15.76097 9.6585156 15.031933 10.742188 14.492188 C 11.835623 13.940955 12.980811 13.664063 14.171875 13.664062 L 19.076172 13.664062 L 19.076172 17.207031 L 21.146484 17.207031 L 21.146484 11.648438 L 19.488281 11.648438 L 19.076172 11.648438 L 14.171875 11.648438 z M 23.109375 11.648438 L 23.109375 17.207031 L 25.179688 17.207031 L 25.179688 13.630859 L 31.320312 13.630859 C 32.423511 13.630859 33.365458 14.083 34.146484 14.990234 C 34.92751 15.897468 35.318359 17.005281 35.318359 18.314453 C 35.318359 19.623626 34.92751 20.739486 34.146484 21.658203 C 33.365458 22.565435 32.423511 23.017578 31.320312 23.017578 C 31.276573 23.017578 31.235799 23.024677 31.195312 23.029297 L 30.335938 22.964844 L 30.335938 25.035156 L 31.107422 24.978516 C 31.173802 24.992696 31.244032 25 31.320312 25 C 32.423511 25 33.365458 25.458236 34.146484 26.376953 C 34.92751 27.29567 35.318359 28.399342 35.318359 29.685547 C 35.318359 30.994719 34.92751 32.102533 34.146484 33.009766 C 33.365458 33.916999 32.423511 34.369141 31.320312 34.369141 L 25.179688 34.369141 L 25.179688 30.792969 L 23.109375 30.792969 L 23.109375 36.351562 L 24.160156 36.351562 L 25.179688 36.351562 L 31.320312 36.351562 C 32.882364 36.351562 34.21516 35.701986 35.318359 34.404297 C 36.431319 33.095124 36.988281 31.52298 36.988281 29.685547 C 36.988281 28.514182 36.738139 27.422698 36.240234 26.412109 C 35.918744 25.746532 35.522318 25.171938 35.052734 24.685547 L 34.322266 24 L 35.052734 23.314453 C 35.522318 22.828062 35.918744 22.253468 36.240234 21.587891 C 36.738139 20.577302 36.988281 19.485818 36.988281 18.314453 C 36.988281 16.477019 36.431319 14.91097 35.318359 13.613281 C 34.21516 12.30411 32.882364 11.648437 31.320312 11.648438 L 25.179688 11.648438 L 24.160156 11.648438 L 23.109375 11.648438 z " /></g></svg>
