<?xml version="1.0" encoding="UTF-8" standalone="no"?>
<!-- Uploaded to: SVG Repo, www.svgrepo.com, Transformed by: SVG Repo Mixer Tools -->

<svg
   width="800px"
   height="800px"
   viewBox="0 0 24 24"
   fill="none"
   version="1.1"
   id="svg2"
   sodipodi:docname="tick-circle-svgrepo-com.svg"
   inkscape:version="1.3 (0e150ed6c4, 2023-07-21)"
   xmlns:inkscape="http://www.inkscape.org/namespaces/inkscape"
   xmlns:sodipodi="http://sodipodi.sourceforge.net/DTD/sodipodi-0.dtd"
   xmlns="http://www.w3.org/2000/svg"
   xmlns:svg="http://www.w3.org/2000/svg">
  <defs
     id="defs2" />
  <sodipodi:namedview
     id="namedview2"
     pagecolor="#ffffff"
     bordercolor="#999999"
     borderopacity="1"
     inkscape:showpageshadow="2"
     inkscape:pageopacity="0"
     inkscape:pagecheckerboard="0"
     inkscape:deskcolor="#d1d1d1"
     inkscape:zoom="1.10125"
     inkscape:cx="400"
     inkscape:cy="400"
     inkscape:window-width="1920"
     inkscape:window-height="1164"
     inkscape:window-x="-11"
     inkscape:window-y="-11"
     inkscape:window-maximized="1"
     inkscape:current-layer="SVGRepo_iconCarrier" />
  <g
     id="SVGRepo_bgCarrier"
     stroke-width="0" />
  <g
     id="SVGRepo_tracerCarrier"
     stroke-linecap="round"
     stroke-linejoin="round" />
  <g
     id="SVGRepo_iconCarrier">
    <path
       opacity="0.4"
       d="M12 22C17.5228 22 22 17.5228 22 12C22 6.47715 17.5228 2 12 2C6.47715 2 2 6.47715 2 12C2 17.5228 6.47715 22 12 22Z"
       fill="#707070"
       id="path1"
       style="fill:#6e6e6e;fill-opacity:1" />
    <path
       d="m 10.018849,17.191015 c -0.2790409,0 -0.5441289,-0.115874 -0.739457,-0.318666 L 5.3309025,12.773131 c -0.4046084,-0.420062 -0.4046084,-1.115336 0,-1.535396 0.4046084,-0.420061 1.074305,-0.420061 1.4789134,0 l 3.2090331,3.33152 7.171335,-7.4452237 c 0.404609,-0.4200611 1.074304,-0.4200611 1.478913,0 0.404609,0.4200612 0.404609,1.1153348 0,1.535396 l -7.910792,8.2129217 c -0.195328,0.202787 -0.460416,0.318666 -0.739456,0.318666 z"
       fill="#707070"
       id="path2"
       style="fill:#ffffff;fill-opacity:1;stroke-width:1" />
  </g>
</svg>
